<svg id="visual" viewBox="0 0 900 250" width="900" height="250" xmlns="http://www.w3.org/2000/svg" xmlns:xlink="http://www.w3.org/1999/xlink" version="1.1"><rect x="0" y="0" width="900" height="250" fill="#dbe1e8"></rect><path d="M0 190L21.5 193.5C43 197 86 204 128.8 205.8C171.7 207.7 214.3 204.3 257.2 201.2C300 198 343 195 385.8 196.5C428.7 198 471.3 204 514.2 203.8C557 203.7 600 197.3 642.8 196.5C685.7 195.7 728.3 200.3 771.2 200.8C814 201.3 857 197.7 878.5 195.8L900 194L900 251L878.5 251C857 251 814 251 771.2 251C728.3 251 685.7 251 642.8 251C600 251 557 251 514.2 251C471.3 251 428.7 251 385.8 251C343 251 300 251 257.2 251C214.3 251 171.7 251 128.8 251C86 251 43 251 21.5 251L0 251Z" fill="#00cc8e"></path><path d="M0 209L21.5 207.7C43 206.3 86 203.7 128.8 205C171.7 206.3 214.3 211.7 257.2 214.5C300 217.3 343 217.7 385.8 217C428.7 216.3 471.3 214.7 514.2 214.7C557 214.7 600 216.3 642.8 215.3C685.7 214.3 728.3 210.7 771.2 208.8C814 207 857 207 878.5 207L900 207L900 251L878.5 251C857 251 814 251 771.2 251C728.3 251 685.7 251 642.8 251C600 251 557 251 514.2 251C471.3 251 428.7 251 385.8 251C343 251 300 251 257.2 251C214.3 251 171.7 251 128.8 251C86 251 43 251 21.5 251L0 251Z" fill="#09995f"></path><path d="M0 215L21.5 214.7C43 214.3 86 213.7 128.8 213.5C171.7 213.3 214.3 213.7 257.2 214.2C300 214.7 343 215.3 385.8 216.3C428.7 217.3 471.3 218.7 514.2 218.2C557 217.7 600 215.3 642.8 214.7C685.7 214 728.3 215 771.2 216.3C814 217.7 857 219.3 878.5 220.2L900 221L900 251L878.5 251C857 251 814 251 771.2 251C728.3 251 685.7 251 642.8 251C600 251 557 251 514.2 251C471.3 251 428.7 251 385.8 251C343 251 300 251 257.2 251C214.3 251 171.7 251 128.8 251C86 251 43 251 21.5 251L0 251Z" fill="#006935"></path><path d="M0 231L21.5 230C43 229 86 227 128.8 225.3C171.7 223.7 214.3 222.3 257.2 222.3C300 222.3 343 223.7 385.8 224.2C428.7 224.7 471.3 224.3 514.2 224.3C557 224.3 600 224.7 642.8 225.3C685.7 226 728.3 227 771.2 228C814 229 857 230 878.5 230.5L900 231L900 251L878.5 251C857 251 814 251 771.2 251C728.3 251 685.7 251 642.8 251C600 251 557 251 514.2 251C471.3 251 428.7 251 385.8 251C343 251 300 251 257.2 251C214.3 251 171.7 251 128.8 251C86 251 43 251 21.5 251L0 251Z" fill="#003a0a"></path><path d="M0 239L21.5 237.8C43 236.7 86 234.3 128.8 233.2C171.7 232 214.3 232 257.2 233.5C300 235 343 238 385.8 239.7C428.7 241.3 471.3 241.7 514.2 240C557 238.3 600 234.7 642.8 233.7C685.7 232.7 728.3 234.3 771.2 234.3C814 234.3 857 232.7 878.5 231.8L900 231L900 251L878.5 251C857 251 814 251 771.2 251C728.3 251 685.7 251 642.8 251C600 251 557 251 514.2 251C471.3 251 428.7 251 385.8 251C343 251 300 251 257.2 251C214.3 251 171.7 251 128.8 251C86 251 43 251 21.5 251L0 251Z" fill="#000000"></path></svg>