<svg id="visual" viewBox="0 0 900 250" width="900" height="250" xmlns="http://www.w3.org/2000/svg" xmlns:xlink="http://www.w3.org/1999/xlink" version="1.1"><rect x="0" y="0" width="900" height="250" fill="#f9f9f9"></rect><path d="M0 162L25 165.7C50 169.3 100 176.7 150 177.3C200 178 250 172 300 171C350 170 400 174 450 173.7C500 173.3 550 168.7 600 169.2C650 169.7 700 175.3 750 176.8C800 178.3 850 175.7 875 174.3L900 173L900 251L875 251C850 251 800 251 750 251C700 251 650 251 600 251C550 251 500 251 450 251C400 251 350 251 300 251C250 251 200 251 150 251C100 251 50 251 25 251L0 251Z" fill="#4facf7"></path><path d="M0 207L25 204.8C50 202.7 100 198.3 150 196.8C200 195.3 250 196.7 300 195.8C350 195 400 192 450 192.3C500 192.7 550 196.3 600 197.5C650 198.7 700 197.3 750 194.3C800 191.3 850 186.7 875 184.3L900 182L900 251L875 251C850 251 800 251 750 251C700 251 650 251 600 251C550 251 500 251 450 251C400 251 350 251 300 251C250 251 200 251 150 251C100 251 50 251 25 251L0 251Z" fill="#3474a9"></path><path d="M0 216L25 217C50 218 100 220 150 217.8C200 215.7 250 209.3 300 205.7C350 202 400 201 450 203.2C500 205.3 550 210.7 600 210.7C650 210.7 700 205.3 750 204.7C800 204 850 208 875 210L900 212L900 251L875 251C850 251 800 251 750 251C700 251 650 251 600 251C550 251 500 251 450 251C400 251 350 251 300 251C250 251 200 251 150 251C100 251 50 251 25 251L0 251Z" fill="#1a4061"></path><path d="M0 225L25 224.7C50 224.3 100 223.7 150 225.3C200 227 250 231 300 233.5C350 236 400 237 450 236.5C500 236 550 234 600 233.8C650 233.7 700 235.3 750 236C800 236.7 850 236.3 875 236.2L900 236L900 251L875 251C850 251 800 251 750 251C700 251 650 251 600 251C550 251 500 251 450 251C400 251 350 251 300 251C250 251 200 251 150 251C100 251 50 251 25 251L0 251Z" fill="#001122"></path></svg>