<svg id="visual" viewBox="0 0 960 540" width="960" height="540" xmlns="http://www.w3.org/2000/svg" xmlns:xlink="http://www.w3.org/1999/xlink" version="1.1"><rect x="0" y="0" width="960" height="540" fill="#f3f3f3"></rect><path d="M0 181L40 181.7C80 182.3 160 183.7 240 186.2C320 188.7 400 192.3 480 194.5C560 196.7 640 197.3 720 190.5C800 183.7 880 169.3 920 162.2L960 155L960 0L920 0C880 0 800 0 720 0C640 0 560 0 480 0C400 0 320 0 240 0C160 0 80 0 40 0L0 0Z" fill="#ffffff"></path><path d="M0 119L40 125.7C80 132.3 160 145.7 240 148.2C320 150.7 400 142.3 480 139.8C560 137.3 640 140.7 720 145.3C800 150 880 156 920 159L960 162L960 0L920 0C880 0 800 0 720 0C640 0 560 0 480 0C400 0 320 0 240 0C160 0 80 0 40 0L0 0Z" fill="#fdfdfd"></path><path d="M0 92L40 87.3C80 82.7 160 73.3 240 75.2C320 77 400 90 480 93.3C560 96.7 640 90.3 720 89.5C800 88.7 880 93.3 920 95.7L960 98L960 0L920 0C880 0 800 0 720 0C640 0 560 0 480 0C400 0 320 0 240 0C160 0 80 0 40 0L0 0Z" fill="#fbfbfb"></path><path d="M0 48L40 46.2C80 44.3 160 40.7 240 38.2C320 35.7 400 34.3 480 41C560 47.7 640 62.3 720 62.8C800 63.3 880 49.7 920 42.8L960 36L960 0L920 0C880 0 800 0 720 0C640 0 560 0 480 0C400 0 320 0 240 0C160 0 80 0 40 0L0 0Z" fill="#f9f9f9"></path></svg>