<svg id="visual" viewBox="0 0 960 540" width="960" height="540" xmlns="http://www.w3.org/2000/svg" xmlns:xlink="http://www.w3.org/1999/xlink" version="1.1"><rect x="0" y="0" width="960" height="540" fill="#f9f9f9"></rect><path d="M0 379L16 385C32 391 64 403 96 403.8C128 404.7 160 394.3 192 392C224 389.7 256 395.3 288 400.8C320 406.3 352 411.7 384 415.5C416 419.3 448 421.7 480 413C512 404.3 544 384.7 576 381.8C608 379 640 393 672 397.7C704 402.3 736 397.7 768 400.8C800 404 832 415 864 412.7C896 410.3 928 394.7 944 386.8L960 379L960 541L944 541C928 541 896 541 864 541C832 541 800 541 768 541C736 541 704 541 672 541C640 541 608 541 576 541C544 541 512 541 480 541C448 541 416 541 384 541C352 541 320 541 288 541C256 541 224 541 192 541C160 541 128 541 96 541C64 541 32 541 16 541L0 541Z" fill="#0be586"></path><path d="M0 452L16 451.7C32 451.3 64 450.7 96 448C128 445.3 160 440.7 192 434.7C224 428.7 256 421.3 288 421.7C320 422 352 430 384 435.7C416 441.3 448 444.7 480 442.2C512 439.7 544 431.3 576 426.7C608 422 640 421 672 420.3C704 419.7 736 419.3 768 426.2C800 433 832 447 864 444C896 441 928 421 944 411L960 401L960 541L944 541C928 541 896 541 864 541C832 541 800 541 768 541C736 541 704 541 672 541C640 541 608 541 576 541C544 541 512 541 480 541C448 541 416 541 384 541C352 541 320 541 288 541C256 541 224 541 192 541C160 541 128 541 96 541C64 541 32 541 16 541L0 541Z" fill="#00ca83"></path><path d="M0 480L16 473.7C32 467.3 64 454.7 96 451C128 447.3 160 452.7 192 460.3C224 468 256 478 288 477.7C320 477.3 352 466.7 384 459.3C416 452 448 448 480 452.8C512 457.7 544 471.3 576 473.8C608 476.3 640 467.7 672 466.7C704 465.7 736 472.3 768 469.3C800 466.3 832 453.7 864 450.5C896 447.3 928 453.7 944 456.8L960 460L960 541L944 541C928 541 896 541 864 541C832 541 800 541 768 541C736 541 704 541 672 541C640 541 608 541 576 541C544 541 512 541 480 541C448 541 416 541 384 541C352 541 320 541 288 541C256 541 224 541 192 541C160 541 128 541 96 541C64 541 32 541 16 541L0 541Z" fill="#00af7d"></path><path d="M0 485L16 483.5C32 482 64 479 96 480C128 481 160 486 192 490.3C224 494.7 256 498.3 288 500.3C320 502.3 352 502.7 384 501C416 499.3 448 495.7 480 493.2C512 490.7 544 489.3 576 490C608 490.7 640 493.3 672 493.5C704 493.7 736 491.3 768 494C800 496.7 832 504.3 864 503.3C896 502.3 928 492.7 944 487.8L960 483L960 541L944 541C928 541 896 541 864 541C832 541 800 541 768 541C736 541 704 541 672 541C640 541 608 541 576 541C544 541 512 541 480 541C448 541 416 541 384 541C352 541 320 541 288 541C256 541 224 541 192 541C160 541 128 541 96 541C64 541 32 541 16 541L0 541Z" fill="#009473"></path></svg>