<svg id="visual" viewBox="0 0 960 150" width="960" height="150" xmlns="http://www.w3.org/2000/svg" xmlns:xlink="http://www.w3.org/1999/xlink" version="1.1"><rect x="0" y="0" width="960" height="150" fill="#0be586"></rect><path d="M0 60L22.8 55.7C45.7 51.3 91.3 42.7 137 41.5C182.7 40.3 228.3 46.7 274 47.7C319.7 48.7 365.3 44.3 411.2 42.3C457 40.3 503 40.7 548.8 42.2C594.7 43.7 640.3 46.3 686 47.8C731.7 49.3 777.3 49.7 823 54C868.7 58.3 914.3 66.7 937.2 70.8L960 75L960 151L937.2 151C914.3 151 868.7 151 823 151C777.3 151 731.7 151 686 151C640.3 151 594.7 151 548.8 151C503 151 457 151 411.2 151C365.3 151 319.7 151 274 151C228.3 151 182.7 151 137 151C91.3 151 45.7 151 22.8 151L0 151Z" fill="#09c372"></path><path d="M0 85L22.8 88C45.7 91 91.3 97 137 98.7C182.7 100.3 228.3 97.7 274 91C319.7 84.3 365.3 73.7 411.2 68.2C457 62.7 503 62.3 548.8 65.5C594.7 68.7 640.3 75.3 686 78C731.7 80.7 777.3 79.3 823 79.7C868.7 80 914.3 82 937.2 83L960 84L960 151L937.2 151C914.3 151 868.7 151 823 151C777.3 151 731.7 151 686 151C640.3 151 594.7 151 548.8 151C503 151 457 151 411.2 151C365.3 151 319.7 151 274 151C228.3 151 182.7 151 137 151C91.3 151 45.7 151 22.8 151L0 151Z" fill="#00651e"></path><path d="M0 113L22.8 111.5C45.7 110 91.3 107 137 109.7C182.7 112.3 228.3 120.7 274 123.5C319.7 126.3 365.3 123.7 411.2 118.7C457 113.7 503 106.3 548.8 105.5C594.7 104.7 640.3 110.3 686 111.7C731.7 113 777.3 110 823 109C868.7 108 914.3 109 937.2 109.5L960 110L960 151L937.2 151C914.3 151 868.7 151 823 151C777.3 151 731.7 151 686 151C640.3 151 594.7 151 548.8 151C503 151 457 151 411.2 151C365.3 151 319.7 151 274 151C228.3 151 182.7 151 137 151C91.3 151 45.7 151 22.8 151L0 151Z" fill="#000000"></path></svg>