<svg id="visual" viewBox="0 0 900 250" width="900" height="250" xmlns="http://www.w3.org/2000/svg" xmlns:xlink="http://www.w3.org/1999/xlink" version="1.1"><rect x="0" y="0" width="900" height="250" fill="#dbe1e8"></rect><path d="M0 58L21.5 54.5C43 51 86 44 128.8 42.2C171.7 40.3 214.3 43.7 257.2 46.8C300 50 343 53 385.8 51.5C428.7 50 471.3 44 514.2 44.2C557 44.3 600 50.7 642.8 51.5C685.7 52.3 728.3 47.7 771.2 47.2C814 46.7 857 50.3 878.5 52.2L900 54L900 0L878.5 0C857 0 814 0 771.2 0C728.3 0 685.7 0 642.8 0C600 0 557 0 514.2 0C471.3 0 428.7 0 385.8 0C343 0 300 0 257.2 0C214.3 0 171.7 0 128.8 0C86 0 43 0 21.5 0L0 0Z" fill="#00cc8e"></path><path d="M0 39L21.5 40.3C43 41.7 86 44.3 128.8 43C171.7 41.7 214.3 36.3 257.2 33.5C300 30.7 343 30.3 385.8 31C428.7 31.7 471.3 33.3 514.2 33.3C557 33.3 600 31.7 642.8 32.7C685.7 33.7 728.3 37.3 771.2 39.2C814 41 857 41 878.5 41L900 41L900 0L878.5 0C857 0 814 0 771.2 0C728.3 0 685.7 0 642.8 0C600 0 557 0 514.2 0C471.3 0 428.7 0 385.8 0C343 0 300 0 257.2 0C214.3 0 171.7 0 128.8 0C86 0 43 0 21.5 0L0 0Z" fill="#6bd8a8"></path><path d="M0 33L21.5 33.3C43 33.7 86 34.3 128.8 34.5C171.7 34.7 214.3 34.3 257.2 33.8C300 33.3 343 32.7 385.8 31.7C428.7 30.7 471.3 29.3 514.2 29.8C557 30.3 600 32.7 642.8 33.3C685.7 34 728.3 33 771.2 31.7C814 30.3 857 28.7 878.5 27.8L900 27L900 0L878.5 0C857 0 814 0 771.2 0C728.3 0 685.7 0 642.8 0C600 0 557 0 514.2 0C471.3 0 428.7 0 385.8 0C343 0 300 0 257.2 0C214.3 0 171.7 0 128.8 0C86 0 43 0 21.5 0L0 0Z" fill="#9fe4c2"></path><path d="M0 17L21.5 18C43 19 86 21 128.8 22.7C171.7 24.3 214.3 25.7 257.2 25.7C300 25.7 343 24.3 385.8 23.8C428.7 23.3 471.3 23.7 514.2 23.7C557 23.7 600 23.3 642.8 22.7C685.7 22 728.3 21 771.2 20C814 19 857 18 878.5 17.5L900 17L900 0L878.5 0C857 0 814 0 771.2 0C728.3 0 685.7 0 642.8 0C600 0 557 0 514.2 0C471.3 0 428.7 0 385.8 0C343 0 300 0 257.2 0C214.3 0 171.7 0 128.8 0C86 0 43 0 21.5 0L0 0Z" fill="#cdefdd"></path><path d="M0 9L21.5 10.2C43 11.3 86 13.7 128.8 14.8C171.7 16 214.3 16 257.2 14.5C300 13 343 10 385.8 8.3C428.7 6.7 471.3 6.3 514.2 8C557 9.7 600 13.3 642.8 14.3C685.7 15.3 728.3 13.7 771.2 13.7C814 13.7 857 15.3 878.5 16.2L900 17L900 0L878.5 0C857 0 814 0 771.2 0C728.3 0 685.7 0 642.8 0C600 0 557 0 514.2 0C471.3 0 428.7 0 385.8 0C343 0 300 0 257.2 0C214.3 0 171.7 0 128.8 0C86 0 43 0 21.5 0L0 0Z" fill="#f9f9f9"></path></svg>