<svg id="visual" viewBox="0 0 900 250" width="900" height="250" xmlns="http://www.w3.org/2000/svg" xmlns:xlink="http://www.w3.org/1999/xlink" version="1.1"><rect x="0" y="0" width="900" height="250" fill="#4facf7"></rect><path d="M0 86L25 82.3C50 78.7 100 71.3 150 70.7C200 70 250 76 300 77C350 78 400 74 450 74.3C500 74.7 550 79.3 600 78.8C650 78.3 700 72.7 750 71.2C800 69.7 850 72.3 875 73.7L900 75L900 0L875 0C850 0 800 0 750 0C700 0 650 0 600 0C550 0 500 0 450 0C400 0 350 0 300 0C250 0 200 0 150 0C100 0 50 0 25 0L0 0Z" fill="#4facf7"></path><path d="M0 41L25 43.2C50 45.3 100 49.7 150 51.2C200 52.7 250 51.3 300 52.2C350 53 400 56 450 55.7C500 55.3 550 51.7 600 50.5C650 49.3 700 50.7 750 53.7C800 56.7 850 61.3 875 63.7L900 66L900 0L875 0C850 0 800 0 750 0C700 0 650 0 600 0C550 0 500 0 450 0C400 0 350 0 300 0C250 0 200 0 150 0C100 0 50 0 25 0L0 0Z" fill="#96c5f8"></path><path d="M0 32L25 31C50 30 100 28 150 30.2C200 32.3 250 38.7 300 42.3C350 46 400 47 450 44.8C500 42.7 550 37.3 600 37.3C650 37.3 700 42.7 750 43.3C800 44 850 40 875 38L900 36L900 0L875 0C850 0 800 0 750 0C700 0 650 0 600 0C550 0 500 0 450 0C400 0 350 0 300 0C250 0 200 0 150 0C100 0 50 0 25 0L0 0Z" fill="#cadff9"></path><path d="M0 23L25 23.3C50 23.7 100 24.3 150 22.7C200 21 250 17 300 14.5C350 12 400 11 450 11.5C500 12 550 14 600 14.2C650 14.3 700 12.7 750 12C800 11.3 850 11.7 875 11.8L900 12L900 0L875 0C850 0 800 0 750 0C700 0 650 0 600 0C550 0 500 0 450 0C400 0 350 0 300 0C250 0 200 0 150 0C100 0 50 0 25 0L0 0Z" fill="#f9f9f9"></path></svg>