<svg id="visual" viewBox="0 0 960 150" width="960" height="150" xmlns="http://www.w3.org/2000/svg" xmlns:xlink="http://www.w3.org/1999/xlink" version="1.1"><rect x="0" y="0" width="960" height="150" fill="#0be586"></rect><path d="M0 88L22.8 92.3C45.7 96.7 91.3 105.3 137 106.5C182.7 107.7 228.3 101.3 274 100.3C319.7 99.3 365.3 103.7 411.2 105.7C457 107.7 503 107.3 548.8 105.8C594.7 104.3 640.3 101.7 686 100.2C731.7 98.7 777.3 98.3 823 94C868.7 89.7 914.3 81.3 937.2 77.2L960 73L960 0L937.2 0C914.3 0 868.7 0 823 0C777.3 0 731.7 0 686 0C640.3 0 594.7 0 548.8 0C503 0 457 0 411.2 0C365.3 0 319.7 0 274 0C228.3 0 182.7 0 137 0C91.3 0 45.7 0 22.8 0L0 0Z" fill="#09c372"></path><path d="M0 63L22.8 60C45.7 57 91.3 51 137 49.3C182.7 47.7 228.3 50.3 274 57C319.7 63.7 365.3 74.3 411.2 79.8C457 85.3 503 85.7 548.8 82.5C594.7 79.3 640.3 72.7 686 70C731.7 67.3 777.3 68.7 823 68.3C868.7 68 914.3 66 937.2 65L960 64L960 0L937.2 0C914.3 0 868.7 0 823 0C777.3 0 731.7 0 686 0C640.3 0 594.7 0 548.8 0C503 0 457 0 411.2 0C365.3 0 319.7 0 274 0C228.3 0 182.7 0 137 0C91.3 0 45.7 0 22.8 0L0 0Z" fill="#006678"></path><path d="M0 35L22.8 36.5C45.7 38 91.3 41 137 38.3C182.7 35.7 228.3 27.3 274 24.5C319.7 21.7 365.3 24.3 411.2 29.3C457 34.3 503 41.7 548.8 42.5C594.7 43.3 640.3 37.7 686 36.3C731.7 35 777.3 38 823 39C868.7 40 914.3 39 937.2 38.5L960 38L960 0L937.2 0C914.3 0 868.7 0 823 0C777.3 0 731.7 0 686 0C640.3 0 594.7 0 548.8 0C503 0 457 0 411.2 0C365.3 0 319.7 0 274 0C228.3 0 182.7 0 137 0C91.3 0 45.7 0 22.8 0L0 0Z" fill="#001122"></path></svg>